%TF.GenerationSoftware,KiCad,Pcbnew,6.99.0-unknown-5c4f49351d~148~ubuntu20.04.1*%
%TF.CreationDate,2022-05-13T09:59:27+08:00*%
%TF.ProjectId,hydrophone,68796472-6f70-4686-9f6e-652e6b696361,rev?*%
%TF.SameCoordinates,Original*%
%TF.FileFunction,Legend,Top*%
%TF.FilePolarity,Positive*%
%FSLAX46Y46*%
G04 Gerber Fmt 4.6, Leading zero omitted, Abs format (unit mm)*
G04 Created by KiCad (PCBNEW 6.99.0-unknown-5c4f49351d~148~ubuntu20.04.1) date 2022-05-13 09:59:27*
%MOMM*%
%LPD*%
G01*
G04 APERTURE LIST*
%ADD10C,0.150000*%
%ADD11C,0.120000*%
G04 APERTURE END LIST*
D10*
X147166667Y-53617380D02*
X147500000Y-54617380D01*
X147500000Y-54617380D02*
X147833333Y-53617380D01*
X147404762Y-60367380D02*
X147595238Y-60367380D01*
X147595238Y-60367380D02*
X147690476Y-60415000D01*
X147690476Y-60415000D02*
X147785714Y-60510238D01*
X147785714Y-60510238D02*
X147833333Y-60700714D01*
X147833333Y-60700714D02*
X147833333Y-61034047D01*
X147833333Y-61034047D02*
X147785714Y-61224523D01*
X147785714Y-61224523D02*
X147690476Y-61319761D01*
X147690476Y-61319761D02*
X147595238Y-61367380D01*
X147595238Y-61367380D02*
X147404762Y-61367380D01*
X147404762Y-61367380D02*
X147309524Y-61319761D01*
X147309524Y-61319761D02*
X147214286Y-61224523D01*
X147214286Y-61224523D02*
X147166667Y-61034047D01*
X147166667Y-61034047D02*
X147166667Y-60700714D01*
X147166667Y-60700714D02*
X147214286Y-60510238D01*
X147214286Y-60510238D02*
X147309524Y-60415000D01*
X147309524Y-60415000D02*
X147404762Y-60367380D01*
X147761904Y-56915000D02*
X147666666Y-56867380D01*
X147666666Y-56867380D02*
X147523809Y-56867380D01*
X147523809Y-56867380D02*
X147380952Y-56915000D01*
X147380952Y-56915000D02*
X147285714Y-57010238D01*
X147285714Y-57010238D02*
X147238095Y-57105476D01*
X147238095Y-57105476D02*
X147190476Y-57295952D01*
X147190476Y-57295952D02*
X147190476Y-57438809D01*
X147190476Y-57438809D02*
X147238095Y-57629285D01*
X147238095Y-57629285D02*
X147285714Y-57724523D01*
X147285714Y-57724523D02*
X147380952Y-57819761D01*
X147380952Y-57819761D02*
X147523809Y-57867380D01*
X147523809Y-57867380D02*
X147619047Y-57867380D01*
X147619047Y-57867380D02*
X147761904Y-57819761D01*
X147761904Y-57819761D02*
X147809523Y-57772142D01*
X147809523Y-57772142D02*
X147809523Y-57438809D01*
X147809523Y-57438809D02*
X147619047Y-57438809D01*
%TO.C,R3*%
X136833333Y-63117380D02*
X136500000Y-62641190D01*
X136261905Y-63117380D02*
X136261905Y-62117380D01*
X136261905Y-62117380D02*
X136642857Y-62117380D01*
X136642857Y-62117380D02*
X136738095Y-62165000D01*
X136738095Y-62165000D02*
X136785714Y-62212619D01*
X136785714Y-62212619D02*
X136833333Y-62307857D01*
X136833333Y-62307857D02*
X136833333Y-62450714D01*
X136833333Y-62450714D02*
X136785714Y-62545952D01*
X136785714Y-62545952D02*
X136738095Y-62593571D01*
X136738095Y-62593571D02*
X136642857Y-62641190D01*
X136642857Y-62641190D02*
X136261905Y-62641190D01*
X137166667Y-62117380D02*
X137785714Y-62117380D01*
X137785714Y-62117380D02*
X137452381Y-62498333D01*
X137452381Y-62498333D02*
X137595238Y-62498333D01*
X137595238Y-62498333D02*
X137690476Y-62545952D01*
X137690476Y-62545952D02*
X137738095Y-62593571D01*
X137738095Y-62593571D02*
X137785714Y-62688809D01*
X137785714Y-62688809D02*
X137785714Y-62926904D01*
X137785714Y-62926904D02*
X137738095Y-63022142D01*
X137738095Y-63022142D02*
X137690476Y-63069761D01*
X137690476Y-63069761D02*
X137595238Y-63117380D01*
X137595238Y-63117380D02*
X137309524Y-63117380D01*
X137309524Y-63117380D02*
X137214286Y-63069761D01*
X137214286Y-63069761D02*
X137166667Y-63022142D01*
%TO.C,C1*%
X124833333Y-59592142D02*
X124785714Y-59639761D01*
X124785714Y-59639761D02*
X124642857Y-59687380D01*
X124642857Y-59687380D02*
X124547619Y-59687380D01*
X124547619Y-59687380D02*
X124404762Y-59639761D01*
X124404762Y-59639761D02*
X124309524Y-59544523D01*
X124309524Y-59544523D02*
X124261905Y-59449285D01*
X124261905Y-59449285D02*
X124214286Y-59258809D01*
X124214286Y-59258809D02*
X124214286Y-59115952D01*
X124214286Y-59115952D02*
X124261905Y-58925476D01*
X124261905Y-58925476D02*
X124309524Y-58830238D01*
X124309524Y-58830238D02*
X124404762Y-58735000D01*
X124404762Y-58735000D02*
X124547619Y-58687380D01*
X124547619Y-58687380D02*
X124642857Y-58687380D01*
X124642857Y-58687380D02*
X124785714Y-58735000D01*
X124785714Y-58735000D02*
X124833333Y-58782619D01*
X125785714Y-59687380D02*
X125214286Y-59687380D01*
X125500000Y-59687380D02*
X125500000Y-58687380D01*
X125500000Y-58687380D02*
X125404762Y-58830238D01*
X125404762Y-58830238D02*
X125309524Y-58925476D01*
X125309524Y-58925476D02*
X125214286Y-58973095D01*
%TO.C,J2*%
X142166666Y-56827380D02*
X142166666Y-57541666D01*
X142166666Y-57541666D02*
X142119047Y-57684523D01*
X142119047Y-57684523D02*
X142023809Y-57779761D01*
X142023809Y-57779761D02*
X141880952Y-57827380D01*
X141880952Y-57827380D02*
X141785714Y-57827380D01*
X142595238Y-56922619D02*
X142642857Y-56875000D01*
X142642857Y-56875000D02*
X142738095Y-56827380D01*
X142738095Y-56827380D02*
X142976190Y-56827380D01*
X142976190Y-56827380D02*
X143071428Y-56875000D01*
X143071428Y-56875000D02*
X143119047Y-56922619D01*
X143119047Y-56922619D02*
X143166666Y-57017857D01*
X143166666Y-57017857D02*
X143166666Y-57113095D01*
X143166666Y-57113095D02*
X143119047Y-57255952D01*
X143119047Y-57255952D02*
X142547619Y-57827380D01*
X142547619Y-57827380D02*
X143166666Y-57827380D01*
%TO.C,R1*%
X124513333Y-57867380D02*
X124180000Y-57391190D01*
X123941905Y-57867380D02*
X123941905Y-56867380D01*
X123941905Y-56867380D02*
X124322857Y-56867380D01*
X124322857Y-56867380D02*
X124418095Y-56915000D01*
X124418095Y-56915000D02*
X124465714Y-56962619D01*
X124465714Y-56962619D02*
X124513333Y-57057857D01*
X124513333Y-57057857D02*
X124513333Y-57200714D01*
X124513333Y-57200714D02*
X124465714Y-57295952D01*
X124465714Y-57295952D02*
X124418095Y-57343571D01*
X124418095Y-57343571D02*
X124322857Y-57391190D01*
X124322857Y-57391190D02*
X123941905Y-57391190D01*
X125465714Y-57867380D02*
X124894286Y-57867380D01*
X125180000Y-57867380D02*
X125180000Y-56867380D01*
X125180000Y-56867380D02*
X125084762Y-57010238D01*
X125084762Y-57010238D02*
X124989524Y-57105476D01*
X124989524Y-57105476D02*
X124894286Y-57153095D01*
%TO.C,C2*%
X140333333Y-57702142D02*
X140285714Y-57749761D01*
X140285714Y-57749761D02*
X140142857Y-57797380D01*
X140142857Y-57797380D02*
X140047619Y-57797380D01*
X140047619Y-57797380D02*
X139904762Y-57749761D01*
X139904762Y-57749761D02*
X139809524Y-57654523D01*
X139809524Y-57654523D02*
X139761905Y-57559285D01*
X139761905Y-57559285D02*
X139714286Y-57368809D01*
X139714286Y-57368809D02*
X139714286Y-57225952D01*
X139714286Y-57225952D02*
X139761905Y-57035476D01*
X139761905Y-57035476D02*
X139809524Y-56940238D01*
X139809524Y-56940238D02*
X139904762Y-56845000D01*
X139904762Y-56845000D02*
X140047619Y-56797380D01*
X140047619Y-56797380D02*
X140142857Y-56797380D01*
X140142857Y-56797380D02*
X140285714Y-56845000D01*
X140285714Y-56845000D02*
X140333333Y-56892619D01*
X140714286Y-56892619D02*
X140761905Y-56845000D01*
X140761905Y-56845000D02*
X140857143Y-56797380D01*
X140857143Y-56797380D02*
X141095238Y-56797380D01*
X141095238Y-56797380D02*
X141190476Y-56845000D01*
X141190476Y-56845000D02*
X141238095Y-56892619D01*
X141238095Y-56892619D02*
X141285714Y-56987857D01*
X141285714Y-56987857D02*
X141285714Y-57083095D01*
X141285714Y-57083095D02*
X141238095Y-57225952D01*
X141238095Y-57225952D02*
X140666667Y-57797380D01*
X140666667Y-57797380D02*
X141285714Y-57797380D01*
%TO.C,R2*%
X126333333Y-62117380D02*
X126000000Y-61641190D01*
X125761905Y-62117380D02*
X125761905Y-61117380D01*
X125761905Y-61117380D02*
X126142857Y-61117380D01*
X126142857Y-61117380D02*
X126238095Y-61165000D01*
X126238095Y-61165000D02*
X126285714Y-61212619D01*
X126285714Y-61212619D02*
X126333333Y-61307857D01*
X126333333Y-61307857D02*
X126333333Y-61450714D01*
X126333333Y-61450714D02*
X126285714Y-61545952D01*
X126285714Y-61545952D02*
X126238095Y-61593571D01*
X126238095Y-61593571D02*
X126142857Y-61641190D01*
X126142857Y-61641190D02*
X125761905Y-61641190D01*
X126714286Y-61212619D02*
X126761905Y-61165000D01*
X126761905Y-61165000D02*
X126857143Y-61117380D01*
X126857143Y-61117380D02*
X127095238Y-61117380D01*
X127095238Y-61117380D02*
X127190476Y-61165000D01*
X127190476Y-61165000D02*
X127238095Y-61212619D01*
X127238095Y-61212619D02*
X127285714Y-61307857D01*
X127285714Y-61307857D02*
X127285714Y-61403095D01*
X127285714Y-61403095D02*
X127238095Y-61545952D01*
X127238095Y-61545952D02*
X126666667Y-62117380D01*
X126666667Y-62117380D02*
X127285714Y-62117380D01*
%TO.C,Q1*%
X137364761Y-52942619D02*
X137269523Y-52895000D01*
X137269523Y-52895000D02*
X137174285Y-52799761D01*
X137174285Y-52799761D02*
X137031428Y-52656904D01*
X137031428Y-52656904D02*
X136936190Y-52609285D01*
X136936190Y-52609285D02*
X136840952Y-52609285D01*
X136888571Y-52847380D02*
X136793333Y-52799761D01*
X136793333Y-52799761D02*
X136698095Y-52704523D01*
X136698095Y-52704523D02*
X136650476Y-52514047D01*
X136650476Y-52514047D02*
X136650476Y-52180714D01*
X136650476Y-52180714D02*
X136698095Y-51990238D01*
X136698095Y-51990238D02*
X136793333Y-51895000D01*
X136793333Y-51895000D02*
X136888571Y-51847380D01*
X136888571Y-51847380D02*
X137079047Y-51847380D01*
X137079047Y-51847380D02*
X137174285Y-51895000D01*
X137174285Y-51895000D02*
X137269523Y-51990238D01*
X137269523Y-51990238D02*
X137317142Y-52180714D01*
X137317142Y-52180714D02*
X137317142Y-52514047D01*
X137317142Y-52514047D02*
X137269523Y-52704523D01*
X137269523Y-52704523D02*
X137174285Y-52799761D01*
X137174285Y-52799761D02*
X137079047Y-52847380D01*
X137079047Y-52847380D02*
X136888571Y-52847380D01*
X138269523Y-52847380D02*
X137698095Y-52847380D01*
X137983809Y-52847380D02*
X137983809Y-51847380D01*
X137983809Y-51847380D02*
X137888571Y-51990238D01*
X137888571Y-51990238D02*
X137793333Y-52085476D01*
X137793333Y-52085476D02*
X137698095Y-52133095D01*
%TO.C,Q2*%
X140404761Y-62862619D02*
X140309523Y-62815000D01*
X140309523Y-62815000D02*
X140214285Y-62719761D01*
X140214285Y-62719761D02*
X140071428Y-62576904D01*
X140071428Y-62576904D02*
X139976190Y-62529285D01*
X139976190Y-62529285D02*
X139880952Y-62529285D01*
X139928571Y-62767380D02*
X139833333Y-62719761D01*
X139833333Y-62719761D02*
X139738095Y-62624523D01*
X139738095Y-62624523D02*
X139690476Y-62434047D01*
X139690476Y-62434047D02*
X139690476Y-62100714D01*
X139690476Y-62100714D02*
X139738095Y-61910238D01*
X139738095Y-61910238D02*
X139833333Y-61815000D01*
X139833333Y-61815000D02*
X139928571Y-61767380D01*
X139928571Y-61767380D02*
X140119047Y-61767380D01*
X140119047Y-61767380D02*
X140214285Y-61815000D01*
X140214285Y-61815000D02*
X140309523Y-61910238D01*
X140309523Y-61910238D02*
X140357142Y-62100714D01*
X140357142Y-62100714D02*
X140357142Y-62434047D01*
X140357142Y-62434047D02*
X140309523Y-62624523D01*
X140309523Y-62624523D02*
X140214285Y-62719761D01*
X140214285Y-62719761D02*
X140119047Y-62767380D01*
X140119047Y-62767380D02*
X139928571Y-62767380D01*
X140738095Y-61862619D02*
X140785714Y-61815000D01*
X140785714Y-61815000D02*
X140880952Y-61767380D01*
X140880952Y-61767380D02*
X141119047Y-61767380D01*
X141119047Y-61767380D02*
X141214285Y-61815000D01*
X141214285Y-61815000D02*
X141261904Y-61862619D01*
X141261904Y-61862619D02*
X141309523Y-61957857D01*
X141309523Y-61957857D02*
X141309523Y-62053095D01*
X141309523Y-62053095D02*
X141261904Y-62195952D01*
X141261904Y-62195952D02*
X140690476Y-62767380D01*
X140690476Y-62767380D02*
X141309523Y-62767380D01*
%TO.C,R4*%
X138333333Y-57937380D02*
X138000000Y-57461190D01*
X137761905Y-57937380D02*
X137761905Y-56937380D01*
X137761905Y-56937380D02*
X138142857Y-56937380D01*
X138142857Y-56937380D02*
X138238095Y-56985000D01*
X138238095Y-56985000D02*
X138285714Y-57032619D01*
X138285714Y-57032619D02*
X138333333Y-57127857D01*
X138333333Y-57127857D02*
X138333333Y-57270714D01*
X138333333Y-57270714D02*
X138285714Y-57365952D01*
X138285714Y-57365952D02*
X138238095Y-57413571D01*
X138238095Y-57413571D02*
X138142857Y-57461190D01*
X138142857Y-57461190D02*
X137761905Y-57461190D01*
X139190476Y-57270714D02*
X139190476Y-57937380D01*
X138952381Y-56889761D02*
X138714286Y-57604047D01*
X138714286Y-57604047D02*
X139333333Y-57604047D01*
%TO.C,R5*%
X137083333Y-60937380D02*
X136750000Y-60461190D01*
X136511905Y-60937380D02*
X136511905Y-59937380D01*
X136511905Y-59937380D02*
X136892857Y-59937380D01*
X136892857Y-59937380D02*
X136988095Y-59985000D01*
X136988095Y-59985000D02*
X137035714Y-60032619D01*
X137035714Y-60032619D02*
X137083333Y-60127857D01*
X137083333Y-60127857D02*
X137083333Y-60270714D01*
X137083333Y-60270714D02*
X137035714Y-60365952D01*
X137035714Y-60365952D02*
X136988095Y-60413571D01*
X136988095Y-60413571D02*
X136892857Y-60461190D01*
X136892857Y-60461190D02*
X136511905Y-60461190D01*
X137988095Y-59937380D02*
X137511905Y-59937380D01*
X137511905Y-59937380D02*
X137464286Y-60413571D01*
X137464286Y-60413571D02*
X137511905Y-60365952D01*
X137511905Y-60365952D02*
X137607143Y-60318333D01*
X137607143Y-60318333D02*
X137845238Y-60318333D01*
X137845238Y-60318333D02*
X137940476Y-60365952D01*
X137940476Y-60365952D02*
X137988095Y-60413571D01*
X137988095Y-60413571D02*
X138035714Y-60508809D01*
X138035714Y-60508809D02*
X138035714Y-60746904D01*
X138035714Y-60746904D02*
X137988095Y-60842142D01*
X137988095Y-60842142D02*
X137940476Y-60889761D01*
X137940476Y-60889761D02*
X137845238Y-60937380D01*
X137845238Y-60937380D02*
X137607143Y-60937380D01*
X137607143Y-60937380D02*
X137511905Y-60889761D01*
X137511905Y-60889761D02*
X137464286Y-60842142D01*
%TO.C,J1*%
X142416666Y-61787380D02*
X142416666Y-62501666D01*
X142416666Y-62501666D02*
X142369047Y-62644523D01*
X142369047Y-62644523D02*
X142273809Y-62739761D01*
X142273809Y-62739761D02*
X142130952Y-62787380D01*
X142130952Y-62787380D02*
X142035714Y-62787380D01*
X143416666Y-62787380D02*
X142845238Y-62787380D01*
X143130952Y-62787380D02*
X143130952Y-61787380D01*
X143130952Y-61787380D02*
X143035714Y-61930238D01*
X143035714Y-61930238D02*
X142940476Y-62025476D01*
X142940476Y-62025476D02*
X142845238Y-62073095D01*
%TO.C,MK1*%
X121690476Y-53367380D02*
X121690476Y-52367380D01*
X121690476Y-52367380D02*
X122023809Y-53081666D01*
X122023809Y-53081666D02*
X122357142Y-52367380D01*
X122357142Y-52367380D02*
X122357142Y-53367380D01*
X122833333Y-53367380D02*
X122833333Y-52367380D01*
X123404761Y-53367380D02*
X122976190Y-52795952D01*
X123404761Y-52367380D02*
X122833333Y-52938809D01*
X124357142Y-53367380D02*
X123785714Y-53367380D01*
X124071428Y-53367380D02*
X124071428Y-52367380D01*
X124071428Y-52367380D02*
X123976190Y-52510238D01*
X123976190Y-52510238D02*
X123880952Y-52605476D01*
X123880952Y-52605476D02*
X123785714Y-52653095D01*
%TO.C,J3*%
X141416666Y-51787380D02*
X141416666Y-52501666D01*
X141416666Y-52501666D02*
X141369047Y-52644523D01*
X141369047Y-52644523D02*
X141273809Y-52739761D01*
X141273809Y-52739761D02*
X141130952Y-52787380D01*
X141130952Y-52787380D02*
X141035714Y-52787380D01*
X141797619Y-51787380D02*
X142416666Y-51787380D01*
X142416666Y-51787380D02*
X142083333Y-52168333D01*
X142083333Y-52168333D02*
X142226190Y-52168333D01*
X142226190Y-52168333D02*
X142321428Y-52215952D01*
X142321428Y-52215952D02*
X142369047Y-52263571D01*
X142369047Y-52263571D02*
X142416666Y-52358809D01*
X142416666Y-52358809D02*
X142416666Y-52596904D01*
X142416666Y-52596904D02*
X142369047Y-52692142D01*
X142369047Y-52692142D02*
X142321428Y-52739761D01*
X142321428Y-52739761D02*
X142226190Y-52787380D01*
X142226190Y-52787380D02*
X141940476Y-52787380D01*
X141940476Y-52787380D02*
X141845238Y-52739761D01*
X141845238Y-52739761D02*
X141797619Y-52692142D01*
%TO.C,C3*%
X131833333Y-60842142D02*
X131785714Y-60889761D01*
X131785714Y-60889761D02*
X131642857Y-60937380D01*
X131642857Y-60937380D02*
X131547619Y-60937380D01*
X131547619Y-60937380D02*
X131404762Y-60889761D01*
X131404762Y-60889761D02*
X131309524Y-60794523D01*
X131309524Y-60794523D02*
X131261905Y-60699285D01*
X131261905Y-60699285D02*
X131214286Y-60508809D01*
X131214286Y-60508809D02*
X131214286Y-60365952D01*
X131214286Y-60365952D02*
X131261905Y-60175476D01*
X131261905Y-60175476D02*
X131309524Y-60080238D01*
X131309524Y-60080238D02*
X131404762Y-59985000D01*
X131404762Y-59985000D02*
X131547619Y-59937380D01*
X131547619Y-59937380D02*
X131642857Y-59937380D01*
X131642857Y-59937380D02*
X131785714Y-59985000D01*
X131785714Y-59985000D02*
X131833333Y-60032619D01*
X132166667Y-59937380D02*
X132785714Y-59937380D01*
X132785714Y-59937380D02*
X132452381Y-60318333D01*
X132452381Y-60318333D02*
X132595238Y-60318333D01*
X132595238Y-60318333D02*
X132690476Y-60365952D01*
X132690476Y-60365952D02*
X132738095Y-60413571D01*
X132738095Y-60413571D02*
X132785714Y-60508809D01*
X132785714Y-60508809D02*
X132785714Y-60746904D01*
X132785714Y-60746904D02*
X132738095Y-60842142D01*
X132738095Y-60842142D02*
X132690476Y-60889761D01*
X132690476Y-60889761D02*
X132595238Y-60937380D01*
X132595238Y-60937380D02*
X132309524Y-60937380D01*
X132309524Y-60937380D02*
X132214286Y-60889761D01*
X132214286Y-60889761D02*
X132166667Y-60842142D01*
D11*
%TO.C,R3*%
X134262742Y-60977500D02*
X134737258Y-60977500D01*
X134262742Y-62022500D02*
X134737258Y-62022500D01*
%TO.C,C1*%
X129227064Y-59910000D02*
X127772936Y-59910000D01*
X129227064Y-58090000D02*
X127772936Y-58090000D01*
%TO.C,J2*%
X143670000Y-57540000D02*
X143670000Y-56210000D01*
X143670000Y-58810000D02*
X146330000Y-58810000D01*
X146330000Y-58810000D02*
X146330000Y-58870000D01*
X143670000Y-58810000D02*
X143670000Y-58870000D01*
X143670000Y-58870000D02*
X146330000Y-58870000D01*
X143670000Y-56210000D02*
X145000000Y-56210000D01*
%TO.C,R1*%
X122477500Y-57262742D02*
X122477500Y-57737258D01*
X123522500Y-57262742D02*
X123522500Y-57737258D01*
%TO.C,C2*%
X142022500Y-55237258D02*
X142022500Y-54762742D01*
X140977500Y-55237258D02*
X140977500Y-54762742D01*
%TO.C,R2*%
X129262742Y-60977500D02*
X129737258Y-60977500D01*
X129262742Y-62022500D02*
X129737258Y-62022500D01*
%TO.C,Q1*%
X126240000Y-52810000D02*
X131430000Y-52810000D01*
X134220000Y-53940000D02*
X131430000Y-53940000D01*
X134220000Y-56480000D02*
X131430000Y-56480000D01*
X131430000Y-52810000D02*
X131430000Y-57610000D01*
X126240000Y-57610000D02*
X126240000Y-52810000D01*
X131430000Y-57610000D02*
X126240000Y-57610000D01*
X134220000Y-55210000D02*
X131430000Y-55210000D01*
%TO.C,Q2*%
X140500000Y-58440000D02*
X139850000Y-58440000D01*
X140500000Y-61560000D02*
X142175000Y-61560000D01*
X140500000Y-61560000D02*
X139850000Y-61560000D01*
X140500000Y-58440000D02*
X141150000Y-58440000D01*
%TO.C,R4*%
X139022500Y-54762742D02*
X139022500Y-55237258D01*
X137977500Y-54762742D02*
X137977500Y-55237258D01*
%TO.C,R5*%
X136262742Y-58477500D02*
X136737258Y-58477500D01*
X136262742Y-59522500D02*
X136737258Y-59522500D01*
%TO.C,J1*%
X143670000Y-62270000D02*
X143670000Y-62330000D01*
X143670000Y-59670000D02*
X145000000Y-59670000D01*
X146330000Y-62270000D02*
X146330000Y-62330000D01*
X143670000Y-61000000D02*
X143670000Y-59670000D01*
X143670000Y-62270000D02*
X146330000Y-62270000D01*
X143670000Y-62330000D02*
X146330000Y-62330000D01*
%TO.C,MK1*%
X131000000Y-57500000D02*
G75*
G03*
X131000000Y-57500000I-8000000J0D01*
G01*
%TO.C,J3*%
X143670000Y-55330000D02*
X146330000Y-55330000D01*
X146330000Y-55270000D02*
X146330000Y-55330000D01*
X143670000Y-55270000D02*
X143670000Y-55330000D01*
X143670000Y-55270000D02*
X146330000Y-55270000D01*
X143670000Y-52670000D02*
X145000000Y-52670000D01*
X143670000Y-54000000D02*
X143670000Y-52670000D01*
%TO.C,C3*%
X132762742Y-58477500D02*
X133237258Y-58477500D01*
X132762742Y-59522500D02*
X133237258Y-59522500D01*
%TD*%
M02*
