%TF.GenerationSoftware,KiCad,Pcbnew,6.99.0-unknown-5c4f49351d~148~ubuntu20.04.1*%
%TF.CreationDate,2022-05-13T09:59:27+08:00*%
%TF.ProjectId,hydrophone,68796472-6f70-4686-9f6e-652e6b696361,rev?*%
%TF.SameCoordinates,Original*%
%TF.FileFunction,Copper,L1,Top*%
%TF.FilePolarity,Positive*%
%FSLAX46Y46*%
G04 Gerber Fmt 4.6, Leading zero omitted, Abs format (unit mm)*
G04 Created by KiCad (PCBNEW 6.99.0-unknown-5c4f49351d~148~ubuntu20.04.1) date 2022-05-13 09:59:27*
%MOMM*%
%LPD*%
G01*
G04 APERTURE LIST*
G04 Aperture macros list*
%AMRoundRect*
0 Rectangle with rounded corners*
0 $1 Rounding radius*
0 $2 $3 $4 $5 $6 $7 $8 $9 X,Y pos of 4 corners*
0 Add a 4 corners polygon primitive as box body*
4,1,4,$2,$3,$4,$5,$6,$7,$8,$9,$2,$3,0*
0 Add four circle primitives for the rounded corners*
1,1,$1+$1,$2,$3*
1,1,$1+$1,$4,$5*
1,1,$1+$1,$6,$7*
1,1,$1+$1,$8,$9*
0 Add four rect primitives between the rounded corners*
20,1,$1+$1,$2,$3,$4,$5,0*
20,1,$1+$1,$4,$5,$6,$7,0*
20,1,$1+$1,$6,$7,$8,$9,0*
20,1,$1+$1,$8,$9,$2,$3,0*%
G04 Aperture macros list end*
%TA.AperFunction,SMDPad,CuDef*%
%ADD10RoundRect,0.200000X-0.200000X-0.275000X0.200000X-0.275000X0.200000X0.275000X-0.200000X0.275000X0*%
%TD*%
%TA.AperFunction,SMDPad,CuDef*%
%ADD11RoundRect,0.250000X0.400000X0.625000X-0.400000X0.625000X-0.400000X-0.625000X0.400000X-0.625000X0*%
%TD*%
%TA.AperFunction,ComponentPad*%
%ADD12R,1.700000X1.700000*%
%TD*%
%TA.AperFunction,SMDPad,CuDef*%
%ADD13RoundRect,0.200000X-0.275000X0.200000X-0.275000X-0.200000X0.275000X-0.200000X0.275000X0.200000X0*%
%TD*%
%TA.AperFunction,SMDPad,CuDef*%
%ADD14RoundRect,0.200000X0.275000X-0.200000X0.275000X0.200000X-0.275000X0.200000X-0.275000X-0.200000X0*%
%TD*%
%TA.AperFunction,ComponentPad*%
%ADD15R,1.500000X1.050000*%
%TD*%
%TA.AperFunction,ComponentPad*%
%ADD16O,1.500000X1.050000*%
%TD*%
%TA.AperFunction,SMDPad,CuDef*%
%ADD17RoundRect,0.150000X0.587500X0.150000X-0.587500X0.150000X-0.587500X-0.150000X0.587500X-0.150000X0*%
%TD*%
%TA.AperFunction,ComponentPad*%
%ADD18C,1.700000*%
%TD*%
%TA.AperFunction,ViaPad*%
%ADD19C,0.600000*%
%TD*%
%TA.AperFunction,Conductor*%
%ADD20C,0.250000*%
%TD*%
G04 APERTURE END LIST*
D10*
%TO.P,R3,1*%
%TO.N,Net-(C1-Pad2)*%
X133675000Y-61500000D03*
%TO.P,R3,2*%
%TO.N,Net-(Q1-Pad3)*%
X135325000Y-61500000D03*
%TD*%
D11*
%TO.P,C1,1*%
%TO.N,GND*%
X130050000Y-59000000D03*
%TO.P,C1,2*%
%TO.N,Net-(C1-Pad2)*%
X126950000Y-59000000D03*
%TD*%
D12*
%TO.P,J2,1,Pin_1*%
%TO.N,GND*%
X144999999Y-57539999D03*
%TD*%
D13*
%TO.P,R1,1*%
%TO.N,Net-(MK1-Pad2)*%
X123000000Y-56675000D03*
%TO.P,R1,2*%
%TO.N,GND*%
X123000000Y-58325000D03*
%TD*%
D14*
%TO.P,C2,1*%
%TO.N,GND*%
X141500000Y-55825000D03*
%TO.P,C2,2*%
%TO.N,+3V3*%
X141500000Y-54175000D03*
%TD*%
D10*
%TO.P,R2,1*%
%TO.N,Net-(C1-Pad2)*%
X128675000Y-61500000D03*
%TO.P,R2,2*%
%TO.N,GND*%
X130325000Y-61500000D03*
%TD*%
D15*
%TO.P,Q1,1,D*%
%TO.N,Net-(Q1-Pad1)*%
X135239999Y-53939999D03*
D16*
%TO.P,Q1,2,G*%
%TO.N,Net-(MK1-Pad2)*%
X135239999Y-55209999D03*
%TO.P,Q1,3,S*%
%TO.N,Net-(Q1-Pad3)*%
X135239999Y-56479999D03*
%TD*%
D17*
%TO.P,Q2,1,B*%
%TO.N,Net-(Q1-Pad1)*%
X141437500Y-60950000D03*
%TO.P,Q2,2,E*%
%TO.N,+3V3*%
X141437500Y-59050000D03*
%TO.P,Q2,3,C*%
%TO.N,Net-(J1-Pad1)*%
X139562500Y-60000000D03*
%TD*%
D13*
%TO.P,R4,1*%
%TO.N,+3V3*%
X138500000Y-54175000D03*
%TO.P,R4,2*%
%TO.N,Net-(Q1-Pad1)*%
X138500000Y-55825000D03*
%TD*%
D10*
%TO.P,R5,1*%
%TO.N,Net-(Q1-Pad3)*%
X135675000Y-59000000D03*
%TO.P,R5,2*%
%TO.N,Net-(J1-Pad1)*%
X137325000Y-59000000D03*
%TD*%
D12*
%TO.P,J1,1,Pin_1*%
%TO.N,Net-(J1-Pad1)*%
X144999999Y-60999999D03*
%TD*%
D18*
%TO.P,MK1,1,-*%
%TO.N,GND*%
X123000000Y-60040000D03*
%TO.P,MK1,2,+*%
%TO.N,Net-(MK1-Pad2)*%
X123000000Y-54960000D03*
%TD*%
D12*
%TO.P,J3,1,Pin_1*%
%TO.N,+3V3*%
X144999999Y-53999999D03*
%TD*%
D10*
%TO.P,C3,1*%
%TO.N,GND*%
X132175000Y-59000000D03*
%TO.P,C3,2*%
%TO.N,Net-(C1-Pad2)*%
X133825000Y-59000000D03*
%TD*%
D19*
%TO.N,GND*%
X132000000Y-61500000D03*
%TD*%
D20*
%TO.N,Net-(C1-Pad2)*%
X128675000Y-60725000D02*
X128675000Y-61500000D01*
X128675000Y-61500000D02*
X128675000Y-62175000D01*
X126950000Y-59000000D02*
X128675000Y-60725000D01*
X132675000Y-62500000D02*
X133675000Y-61500000D01*
X133675000Y-59150000D02*
X133825000Y-59000000D01*
X129000000Y-62500000D02*
X132675000Y-62500000D01*
X128675000Y-62175000D02*
X129000000Y-62500000D01*
X133675000Y-61500000D02*
X133675000Y-59150000D01*
%TO.N,GND*%
X141500000Y-55825000D02*
X143285000Y-55825000D01*
X123000000Y-60040000D02*
X123000000Y-58325000D01*
X130050000Y-59000000D02*
X132175000Y-59000000D01*
X132000000Y-61500000D02*
X132175000Y-61325000D01*
X143285000Y-55825000D02*
X145000000Y-57540000D01*
X132175000Y-61325000D02*
X132175000Y-59000000D01*
X132000000Y-61500000D02*
X130325000Y-61500000D01*
%TO.N,Net-(J1-Pad1)*%
X144000000Y-60000000D02*
X145000000Y-61000000D01*
X138562500Y-59000000D02*
X137325000Y-59000000D01*
X138562500Y-59000000D02*
X139562500Y-60000000D01*
X139562500Y-60000000D02*
X144000000Y-60000000D01*
%TO.N,Net-(Q1-Pad3)*%
X135240000Y-58565000D02*
X135675000Y-59000000D01*
X135240000Y-61415000D02*
X135325000Y-61500000D01*
X135240000Y-56480000D02*
X135240000Y-58565000D01*
X135675000Y-59000000D02*
X135675000Y-61150000D01*
X135675000Y-61150000D02*
X135325000Y-61500000D01*
%TO.N,+3V3*%
X144825000Y-54175000D02*
X145000000Y-54000000D01*
X140175000Y-54175000D02*
X144825000Y-54175000D01*
X141437500Y-59050000D02*
X140175000Y-57787500D01*
X140175000Y-57787500D02*
X140175000Y-54175000D01*
X138500000Y-54175000D02*
X140175000Y-54175000D01*
%TO.N,Net-(MK1-Pad2)*%
X135240000Y-55210000D02*
X123250000Y-55210000D01*
X123000000Y-54960000D02*
X123000000Y-56675000D01*
X123250000Y-55210000D02*
X123000000Y-55460000D01*
X123250000Y-55210000D02*
X123000000Y-54960000D01*
%TO.N,Net-(Q1-Pad1)*%
X135240000Y-53940000D02*
X136615000Y-53940000D01*
X136615000Y-53940000D02*
X138500000Y-55825000D01*
X138450000Y-60950000D02*
X141437500Y-60950000D01*
X137000000Y-60500000D02*
X138000000Y-60500000D01*
X136500000Y-58102676D02*
X136500000Y-60000000D01*
X138500000Y-55825000D02*
X138500000Y-56500000D01*
X137000000Y-58000000D02*
X136602676Y-58000000D01*
X138000000Y-60500000D02*
X138450000Y-60950000D01*
X136500000Y-60000000D02*
X137000000Y-60500000D01*
X138500000Y-56500000D02*
X137000000Y-58000000D01*
X136602676Y-58000000D02*
X136500000Y-58102676D01*
%TD*%
M02*
