%TF.GenerationSoftware,KiCad,Pcbnew,6.99.0-unknown-5c4f49351d~148~ubuntu20.04.1*%
%TF.CreationDate,2022-05-13T09:59:27+08:00*%
%TF.ProjectId,hydrophone,68796472-6f70-4686-9f6e-652e6b696361,rev?*%
%TF.SameCoordinates,Original*%
%TF.FileFunction,Copper,L2,Bot*%
%TF.FilePolarity,Positive*%
%FSLAX46Y46*%
G04 Gerber Fmt 4.6, Leading zero omitted, Abs format (unit mm)*
G04 Created by KiCad (PCBNEW 6.99.0-unknown-5c4f49351d~148~ubuntu20.04.1) date 2022-05-13 09:59:27*
%MOMM*%
%LPD*%
G01*
G04 APERTURE LIST*
%TA.AperFunction,ComponentPad*%
%ADD10R,1.700000X1.700000*%
%TD*%
%TA.AperFunction,ComponentPad*%
%ADD11R,1.500000X1.050000*%
%TD*%
%TA.AperFunction,ComponentPad*%
%ADD12O,1.500000X1.050000*%
%TD*%
%TA.AperFunction,ComponentPad*%
%ADD13C,1.700000*%
%TD*%
%TA.AperFunction,ViaPad*%
%ADD14C,0.600000*%
%TD*%
G04 APERTURE END LIST*
D10*
%TO.P,J2,1,Pin_1*%
%TO.N,GND*%
X144999999Y-57539999D03*
%TD*%
D11*
%TO.P,Q1,1,D*%
%TO.N,Net-(Q1-Pad1)*%
X135239999Y-53939999D03*
D12*
%TO.P,Q1,2,G*%
%TO.N,Net-(MK1-Pad2)*%
X135239999Y-55209999D03*
%TO.P,Q1,3,S*%
%TO.N,Net-(Q1-Pad3)*%
X135239999Y-56479999D03*
%TD*%
D10*
%TO.P,J1,1,Pin_1*%
%TO.N,Net-(J1-Pad1)*%
X144999999Y-60999999D03*
%TD*%
D13*
%TO.P,MK1,1,-*%
%TO.N,GND*%
X123000000Y-60040000D03*
%TO.P,MK1,2,+*%
%TO.N,Net-(MK1-Pad2)*%
X123000000Y-54960000D03*
%TD*%
D10*
%TO.P,J3,1,Pin_1*%
%TO.N,+3V3*%
X144999999Y-53999999D03*
%TD*%
D14*
%TO.N,GND*%
X132000000Y-61500000D03*
%TD*%
%TA.AperFunction,Conductor*%
%TO.N,GND*%
G36*
X147941621Y-51520502D02*
G01*
X147988114Y-51574158D01*
X147999500Y-51626500D01*
X147999500Y-63373500D01*
X147979498Y-63441621D01*
X147925842Y-63488114D01*
X147873500Y-63499500D01*
X121626500Y-63499500D01*
X121558379Y-63479498D01*
X121511886Y-63425842D01*
X121500500Y-63373500D01*
X121500500Y-61898638D01*
X143641500Y-61898638D01*
X143648011Y-61959201D01*
X143699111Y-62096204D01*
X143786739Y-62213261D01*
X143903796Y-62300889D01*
X144040799Y-62351989D01*
X144077705Y-62355957D01*
X144098012Y-62358140D01*
X144098015Y-62358140D01*
X144101362Y-62358500D01*
X145898638Y-62358500D01*
X145901985Y-62358140D01*
X145901988Y-62358140D01*
X145922295Y-62355957D01*
X145959201Y-62351989D01*
X146096204Y-62300889D01*
X146213261Y-62213261D01*
X146300889Y-62096204D01*
X146351989Y-61959201D01*
X146358500Y-61898638D01*
X146358500Y-60101362D01*
X146351989Y-60040799D01*
X146300889Y-59903796D01*
X146213261Y-59786739D01*
X146096204Y-59699111D01*
X145959201Y-59648011D01*
X145922295Y-59644043D01*
X145901988Y-59641860D01*
X145901985Y-59641860D01*
X145898638Y-59641500D01*
X144101362Y-59641500D01*
X144098015Y-59641860D01*
X144098012Y-59641860D01*
X144077705Y-59644043D01*
X144040799Y-59648011D01*
X143903796Y-59699111D01*
X143786739Y-59786739D01*
X143699111Y-59903796D01*
X143648011Y-60040799D01*
X143641500Y-60101362D01*
X143641500Y-61898638D01*
X121500500Y-61898638D01*
X121500500Y-61164814D01*
X122240173Y-61164814D01*
X122248130Y-61175655D01*
X122250590Y-61177570D01*
X122259279Y-61183247D01*
X122448043Y-61285401D01*
X122457560Y-61289575D01*
X122660557Y-61359264D01*
X122670627Y-61361815D01*
X122882336Y-61397143D01*
X122892684Y-61398000D01*
X123107316Y-61398000D01*
X123117664Y-61397143D01*
X123329373Y-61361815D01*
X123339443Y-61359264D01*
X123542440Y-61289575D01*
X123551957Y-61285401D01*
X123740721Y-61183247D01*
X123749410Y-61177570D01*
X123751394Y-61176026D01*
X123759862Y-61164259D01*
X123753304Y-61152514D01*
X123012812Y-60412022D01*
X122998868Y-60404408D01*
X122997035Y-60404539D01*
X122990420Y-60408790D01*
X122247123Y-61152087D01*
X122240173Y-61164814D01*
X121500500Y-61164814D01*
X121500500Y-60603076D01*
X121520502Y-60534955D01*
X121574158Y-60488462D01*
X121644432Y-60478358D01*
X121709012Y-60507852D01*
X121741887Y-60552462D01*
X121799488Y-60683778D01*
X121804431Y-60692913D01*
X121867014Y-60788703D01*
X121877739Y-60797856D01*
X121887463Y-60793327D01*
X122627978Y-60052812D01*
X122634356Y-60041132D01*
X123364408Y-60041132D01*
X123364539Y-60042965D01*
X123368790Y-60049580D01*
X124110266Y-60791056D01*
X124122646Y-60797816D01*
X124131231Y-60791390D01*
X124195569Y-60692913D01*
X124200512Y-60683778D01*
X124286730Y-60487223D01*
X124290100Y-60477408D01*
X124342790Y-60269335D01*
X124344499Y-60259092D01*
X124362224Y-60045189D01*
X124362224Y-60034811D01*
X124344499Y-59820908D01*
X124342790Y-59810665D01*
X124290100Y-59602592D01*
X124286730Y-59592777D01*
X124200512Y-59396222D01*
X124195569Y-59387087D01*
X124132986Y-59291297D01*
X124122261Y-59282144D01*
X124112537Y-59286673D01*
X123372022Y-60027188D01*
X123364408Y-60041132D01*
X122634356Y-60041132D01*
X122635592Y-60038868D01*
X122635461Y-60037035D01*
X122631210Y-60030420D01*
X121889734Y-59288944D01*
X121877354Y-59282184D01*
X121868769Y-59288610D01*
X121804431Y-59387087D01*
X121799488Y-59396222D01*
X121741887Y-59527538D01*
X121696206Y-59581886D01*
X121628394Y-59602910D01*
X121559980Y-59583934D01*
X121512686Y-59530983D01*
X121500500Y-59476924D01*
X121500500Y-58915741D01*
X122240138Y-58915741D01*
X122246696Y-58927486D01*
X122987188Y-59667978D01*
X123001132Y-59675592D01*
X123002965Y-59675461D01*
X123009580Y-59671210D01*
X123752877Y-58927913D01*
X123759827Y-58915186D01*
X123751870Y-58904345D01*
X123749410Y-58902430D01*
X123740721Y-58896753D01*
X123551957Y-58794599D01*
X123542440Y-58790425D01*
X123339443Y-58720736D01*
X123329373Y-58718185D01*
X123117664Y-58682857D01*
X123107316Y-58682000D01*
X122892684Y-58682000D01*
X122882336Y-58682857D01*
X122670627Y-58718185D01*
X122660557Y-58720736D01*
X122457560Y-58790425D01*
X122448043Y-58794599D01*
X122259279Y-58896753D01*
X122250590Y-58902430D01*
X122248606Y-58903974D01*
X122240138Y-58915741D01*
X121500500Y-58915741D01*
X121500500Y-58435223D01*
X143642000Y-58435223D01*
X143642360Y-58441938D01*
X143647662Y-58491257D01*
X143651259Y-58506478D01*
X143696405Y-58627520D01*
X143704954Y-58643176D01*
X143781698Y-58745693D01*
X143794307Y-58758302D01*
X143896824Y-58835046D01*
X143912480Y-58843595D01*
X144033522Y-58888741D01*
X144048743Y-58892338D01*
X144098062Y-58897640D01*
X144104777Y-58898000D01*
X144727885Y-58898000D01*
X144743124Y-58893525D01*
X144744329Y-58892135D01*
X144746000Y-58884452D01*
X144746000Y-58879885D01*
X145254000Y-58879885D01*
X145258475Y-58895124D01*
X145259865Y-58896329D01*
X145267548Y-58898000D01*
X145895223Y-58898000D01*
X145901938Y-58897640D01*
X145951257Y-58892338D01*
X145966478Y-58888741D01*
X146087520Y-58843595D01*
X146103176Y-58835046D01*
X146205693Y-58758302D01*
X146218302Y-58745693D01*
X146295046Y-58643176D01*
X146303595Y-58627520D01*
X146348741Y-58506478D01*
X146352338Y-58491257D01*
X146357640Y-58441938D01*
X146358000Y-58435223D01*
X146358000Y-57812115D01*
X146353525Y-57796876D01*
X146352135Y-57795671D01*
X146344452Y-57794000D01*
X145272115Y-57794000D01*
X145256876Y-57798475D01*
X145255671Y-57799865D01*
X145254000Y-57807548D01*
X145254000Y-58879885D01*
X144746000Y-58879885D01*
X144746000Y-57812115D01*
X144741525Y-57796876D01*
X144740135Y-57795671D01*
X144732452Y-57794000D01*
X143660115Y-57794000D01*
X143644876Y-57798475D01*
X143643671Y-57799865D01*
X143642000Y-57807548D01*
X143642000Y-58435223D01*
X121500500Y-58435223D01*
X121500500Y-56480000D01*
X133976499Y-56480000D01*
X133996454Y-56682601D01*
X133998250Y-56688521D01*
X133998251Y-56688527D01*
X134040989Y-56829417D01*
X134055550Y-56877417D01*
X134151518Y-57056960D01*
X134280669Y-57214331D01*
X134438040Y-57343482D01*
X134617583Y-57439450D01*
X134812399Y-57498546D01*
X134897883Y-57506966D01*
X134961146Y-57513197D01*
X134961151Y-57513197D01*
X134964225Y-57513500D01*
X135515775Y-57513500D01*
X135518849Y-57513197D01*
X135518854Y-57513197D01*
X135582117Y-57506966D01*
X135667601Y-57498546D01*
X135862417Y-57439450D01*
X136041960Y-57343482D01*
X136134075Y-57267885D01*
X143642000Y-57267885D01*
X143646475Y-57283124D01*
X143647865Y-57284329D01*
X143655548Y-57286000D01*
X144727885Y-57286000D01*
X144743124Y-57281525D01*
X144744329Y-57280135D01*
X144746000Y-57272452D01*
X144746000Y-57267885D01*
X145254000Y-57267885D01*
X145258475Y-57283124D01*
X145259865Y-57284329D01*
X145267548Y-57286000D01*
X146339885Y-57286000D01*
X146355124Y-57281525D01*
X146356329Y-57280135D01*
X146358000Y-57272452D01*
X146358000Y-56644777D01*
X146357640Y-56638062D01*
X146352338Y-56588743D01*
X146348741Y-56573522D01*
X146303595Y-56452480D01*
X146295046Y-56436824D01*
X146218302Y-56334307D01*
X146205693Y-56321698D01*
X146103176Y-56244954D01*
X146087520Y-56236405D01*
X145966478Y-56191259D01*
X145951257Y-56187662D01*
X145901938Y-56182360D01*
X145895223Y-56182000D01*
X145272115Y-56182000D01*
X145256876Y-56186475D01*
X145255671Y-56187865D01*
X145254000Y-56195548D01*
X145254000Y-57267885D01*
X144746000Y-57267885D01*
X144746000Y-56200115D01*
X144741525Y-56184876D01*
X144740135Y-56183671D01*
X144732452Y-56182000D01*
X144104777Y-56182000D01*
X144098062Y-56182360D01*
X144048743Y-56187662D01*
X144033522Y-56191259D01*
X143912480Y-56236405D01*
X143896824Y-56244954D01*
X143794307Y-56321698D01*
X143781698Y-56334307D01*
X143704954Y-56436824D01*
X143696405Y-56452480D01*
X143651259Y-56573522D01*
X143647662Y-56588743D01*
X143642360Y-56638062D01*
X143642000Y-56644777D01*
X143642000Y-57267885D01*
X136134075Y-57267885D01*
X136199331Y-57214331D01*
X136328482Y-57056960D01*
X136424450Y-56877417D01*
X136439011Y-56829417D01*
X136481749Y-56688527D01*
X136481750Y-56688521D01*
X136483546Y-56682601D01*
X136503501Y-56480000D01*
X136483546Y-56277399D01*
X136481750Y-56271479D01*
X136481749Y-56271473D01*
X136426245Y-56088501D01*
X136424450Y-56082583D01*
X136329207Y-55904396D01*
X136314735Y-55834890D01*
X136329207Y-55785604D01*
X136421534Y-55612872D01*
X136424450Y-55607417D01*
X136449656Y-55524322D01*
X136481749Y-55418527D01*
X136481750Y-55418521D01*
X136483546Y-55412601D01*
X136503501Y-55210000D01*
X136483546Y-55007399D01*
X136450554Y-54898638D01*
X143641500Y-54898638D01*
X143648011Y-54959201D01*
X143699111Y-55096204D01*
X143786739Y-55213261D01*
X143903796Y-55300889D01*
X144040799Y-55351989D01*
X144077705Y-55355957D01*
X144098012Y-55358140D01*
X144098015Y-55358140D01*
X144101362Y-55358500D01*
X145898638Y-55358500D01*
X145901985Y-55358140D01*
X145901988Y-55358140D01*
X145922295Y-55355957D01*
X145959201Y-55351989D01*
X146096204Y-55300889D01*
X146213261Y-55213261D01*
X146300889Y-55096204D01*
X146351989Y-54959201D01*
X146358500Y-54898638D01*
X146358500Y-53101362D01*
X146351989Y-53040799D01*
X146300889Y-52903796D01*
X146213261Y-52786739D01*
X146096204Y-52699111D01*
X145959201Y-52648011D01*
X145922295Y-52644043D01*
X145901988Y-52641860D01*
X145901985Y-52641860D01*
X145898638Y-52641500D01*
X144101362Y-52641500D01*
X144098015Y-52641860D01*
X144098012Y-52641860D01*
X144077705Y-52644043D01*
X144040799Y-52648011D01*
X143903796Y-52699111D01*
X143786739Y-52786739D01*
X143699111Y-52903796D01*
X143648011Y-53040799D01*
X143641500Y-53101362D01*
X143641500Y-54898638D01*
X136450554Y-54898638D01*
X136425371Y-54815618D01*
X136424738Y-54744624D01*
X136435358Y-54718658D01*
X136435490Y-54718416D01*
X136440889Y-54711204D01*
X136444036Y-54702767D01*
X136444038Y-54702763D01*
X136489236Y-54581581D01*
X136491989Y-54574201D01*
X136498500Y-54513638D01*
X136498500Y-53366362D01*
X136491989Y-53305799D01*
X136440889Y-53168796D01*
X136392931Y-53104731D01*
X136358659Y-53058950D01*
X136353261Y-53051739D01*
X136236204Y-52964111D01*
X136099201Y-52913011D01*
X136062295Y-52909043D01*
X136041988Y-52906860D01*
X136041985Y-52906860D01*
X136038638Y-52906500D01*
X134441362Y-52906500D01*
X134438015Y-52906860D01*
X134438012Y-52906860D01*
X134417705Y-52909043D01*
X134380799Y-52913011D01*
X134243796Y-52964111D01*
X134126739Y-53051739D01*
X134121341Y-53058950D01*
X134087070Y-53104731D01*
X134039111Y-53168796D01*
X133988011Y-53305799D01*
X133981500Y-53366362D01*
X133981500Y-54513638D01*
X133988011Y-54574201D01*
X133990764Y-54581581D01*
X134035962Y-54702763D01*
X134035964Y-54702767D01*
X134039111Y-54711204D01*
X134044510Y-54718416D01*
X134044642Y-54718658D01*
X134059733Y-54788032D01*
X134054629Y-54815618D01*
X133996454Y-55007399D01*
X133976499Y-55210000D01*
X133996454Y-55412601D01*
X133998250Y-55418521D01*
X133998251Y-55418527D01*
X134030344Y-55524322D01*
X134055550Y-55607417D01*
X134058466Y-55612872D01*
X134150793Y-55785604D01*
X134165265Y-55855110D01*
X134150793Y-55904396D01*
X134055550Y-56082583D01*
X134053755Y-56088501D01*
X133998251Y-56271473D01*
X133998250Y-56271479D01*
X133996454Y-56277399D01*
X133976499Y-56480000D01*
X121500500Y-56480000D01*
X121500500Y-55524322D01*
X121520502Y-55456201D01*
X121574158Y-55409708D01*
X121644432Y-55399604D01*
X121709012Y-55429098D01*
X121741888Y-55473709D01*
X121801140Y-55608791D01*
X121924278Y-55797268D01*
X121927803Y-55801097D01*
X121927806Y-55801101D01*
X121977526Y-55855110D01*
X122076760Y-55962906D01*
X122080879Y-55966112D01*
X122238123Y-56088501D01*
X122254424Y-56101189D01*
X122259005Y-56103668D01*
X122437224Y-56200115D01*
X122452426Y-56208342D01*
X122665365Y-56281444D01*
X122670499Y-56282301D01*
X122670504Y-56282302D01*
X122882294Y-56317643D01*
X122882296Y-56317643D01*
X122887431Y-56318500D01*
X123112569Y-56318500D01*
X123117704Y-56317643D01*
X123117706Y-56317643D01*
X123329496Y-56282302D01*
X123329501Y-56282301D01*
X123334635Y-56281444D01*
X123547574Y-56208342D01*
X123562777Y-56200115D01*
X123740995Y-56103668D01*
X123745576Y-56101189D01*
X123761878Y-56088501D01*
X123919121Y-55966112D01*
X123923240Y-55962906D01*
X124022474Y-55855110D01*
X124072194Y-55801101D01*
X124072197Y-55801097D01*
X124075722Y-55797268D01*
X124198860Y-55608791D01*
X124289296Y-55402616D01*
X124336513Y-55216163D01*
X124343283Y-55189427D01*
X124343283Y-55189426D01*
X124344564Y-55184368D01*
X124363156Y-54960000D01*
X124351192Y-54815618D01*
X124344995Y-54740828D01*
X124344994Y-54740823D01*
X124344564Y-54735632D01*
X124338378Y-54711204D01*
X124290578Y-54522446D01*
X124290578Y-54522445D01*
X124289296Y-54517384D01*
X124198860Y-54311209D01*
X124075722Y-54122732D01*
X124072197Y-54118903D01*
X124072194Y-54118899D01*
X123926772Y-53960931D01*
X123923240Y-53957094D01*
X123745576Y-53818811D01*
X123547574Y-53711658D01*
X123334635Y-53638556D01*
X123329501Y-53637699D01*
X123329496Y-53637698D01*
X123117706Y-53602357D01*
X123117704Y-53602357D01*
X123112569Y-53601500D01*
X122887431Y-53601500D01*
X122882296Y-53602357D01*
X122882294Y-53602357D01*
X122670504Y-53637698D01*
X122670499Y-53637699D01*
X122665365Y-53638556D01*
X122452426Y-53711658D01*
X122254424Y-53818811D01*
X122076760Y-53957094D01*
X122073228Y-53960931D01*
X121927806Y-54118899D01*
X121927803Y-54118903D01*
X121924278Y-54122732D01*
X121801140Y-54311209D01*
X121799048Y-54315978D01*
X121799046Y-54315982D01*
X121741888Y-54446291D01*
X121696207Y-54500640D01*
X121628394Y-54521664D01*
X121559981Y-54502688D01*
X121512686Y-54449737D01*
X121500500Y-54395678D01*
X121500500Y-51626500D01*
X121520502Y-51558379D01*
X121574158Y-51511886D01*
X121626500Y-51500500D01*
X147873500Y-51500500D01*
X147941621Y-51520502D01*
G37*
%TD.AperFunction*%
%TD*%
M02*
